<?xml version="1.0" encoding="UTF-8" standalone="no"?>
<svg xmlns="http://www.w3.org/2000/svg"
     xmlns:svg="http://www.w3.org/2000/svg"
     version="1.1"
     width="10in" height="10in"
     viewBox="0 0 3000 3000">
  <path id="path1"
        fill="white" stroke="#b4ada3" stroke-width="8"
        d="M 1466.00,488.42
           C 1466.00,488.42 1530.00,489.00 1530.00,489.00
             1530.00,489.00 1549.00,490.00 1549.00,490.00
             1549.00,490.00 1559.00,490.91 1559.00,490.91
             1559.00,490.91 1624.00,497.73 1624.00,497.73
             1680.25,505.84 1730.85,517.35 1785.00,534.66
             1945.24,585.87 2090.48,678.98 2205.09,802.00
             2243.07,842.77 2278.29,886.39 2308.92,933.00
             2371.63,1028.44 2415.01,1124.04 2445.58,1234.00
             2460.90,1289.13 2471.48,1347.10 2477.17,1404.00
             2477.17,1404.00 2480.09,1439.00 2480.09,1439.00
             2480.09,1439.00 2481.00,1449.00 2481.00,1449.00
             2481.00,1449.00 2482.00,1466.00 2482.00,1466.00
             2482.00,1466.00 2482.00,1480.00 2482.00,1480.00
             2482.00,1480.00 2483.00,1496.00 2483.00,1496.00
             2483.00,1496.00 2483.00,1528.00 2483.00,1528.00
             2483.00,1528.00 2482.00,1544.00 2482.00,1544.00
             2482.00,1544.00 2482.00,1557.00 2482.00,1557.00
             2482.00,1557.00 2481.00,1575.00 2481.00,1575.00
             2481.00,1575.00 2480.09,1585.00 2480.09,1585.00
             2480.09,1585.00 2473.28,1653.00 2473.28,1653.00
             2466.69,1703.04 2456.26,1752.47 2442.42,1801.00
             2392.20,1977.18 2296.51,2137.22 2164.00,2263.96
             2076.36,2347.79 1972.73,2414.69 1861.00,2461.58
             1758.22,2504.71 1630.52,2533.70 1519.00,2535.00
             1519.00,2535.00 1505.00,2536.00 1505.00,2536.00
             1505.00,2536.00 1474.00,2536.00 1474.00,2536.00
             1474.00,2536.00 1459.00,2535.00 1459.00,2535.00
             1459.00,2535.00 1447.00,2535.00 1447.00,2535.00
             1447.00,2535.00 1429.00,2534.00 1429.00,2534.00
             1429.00,2534.00 1419.00,2533.09 1419.00,2533.09
             1419.00,2533.09 1354.00,2526.27 1354.00,2526.27
             1284.43,2516.24 1222.15,2500.31 1156.00,2476.69
             1075.69,2448.02 993.31,2403.97 924.00,2354.42
             841.70,2295.58 773.60,2229.80 711.42,2150.00
             615.54,2026.94 550.17,1881.32 517.79,1729.00
             510.13,1692.98 504.49,1656.62 500.83,1620.00
             500.83,1620.00 497.00,1571.00 497.00,1571.00
             497.00,1571.00 496.00,1558.00 496.00,1558.00
             496.00,1558.00 496.00,1544.00 496.00,1544.00
             496.00,1544.00 495.00,1528.00 495.00,1528.00
             495.00,1528.00 495.00,1496.00 495.00,1496.00
             495.00,1496.00 496.00,1480.00 496.00,1480.00
             496.00,1480.00 496.00,1467.00 496.00,1467.00
             496.00,1467.00 497.00,1449.00 497.00,1449.00
             497.00,1449.00 497.91,1439.00 497.91,1439.00
             499.93,1409.49 503.03,1380.27 507.58,1351.00
             521.04,1264.25 544.97,1179.77 579.43,1099.00
             656.70,917.87 785.01,761.66 949.00,652.33
             988.13,626.25 1031.27,601.32 1074.00,581.69
             1109.69,565.31 1145.65,549.97 1183.00,537.67
             1248.53,516.09 1311.61,502.73 1380.00,494.28
             1380.00,494.28 1419.00,490.91 1419.00,490.91
             1419.00,490.91 1429.00,490.00 1429.00,490.00
             1429.00,490.00 1448.00,489.00 1448.00,489.00
             1454.01,488.99 1460.03,489.27 1466.00,488.42 Z">
        <title>circulo</title>
  </path>
  <path id="path2"
        fill="#70838A" stroke="#515e63" stroke-width="8"
        d="M 1758.35,2002.14
           C 1794.20,1913.73 1843.61,1773.94 1837.71,1652.26
             1835.21,1549.06 1847.49,1376.31 1998.11,1297.09
             2101.58,1241.77 2189.22,1252.57 2249.25,1252.71
             2112.32,1320.12 2060.01,1445.04 2052.76,1569.59
             2054.42,1653.63 2080.79,1772.84 2022.86,1926.92
             1991.03,1930.46 1794.22,1986.69 1758.35,2002.14 Z">
        <title>cachoeira</title>
  </path>
  <path id="path3"
        fill="#914417" stroke="#743612" stroke-width="8"
        d="M 1320.97,1925.65
           C 1357.85,1905.31 1393.94,1907.11 1427.06,1927.89
             1427.06,1927.89 1428.26,2155.85 1428.26,2155.85
             1428.26,2155.85 1410.97,2168.03 1410.97,2168.03
             1410.97,2168.03 1319.92,2097.45 1319.92,2097.45
             1319.92,2097.45 1320.97,1925.65 1320.97,1925.65 Z">
        <title>porta</title>
  </path>
  <path id="path4"
        fill="#695E3E" stroke="#524930" stroke-width="8"
        d="M 1046.62,1846.17
           C 1046.62,1846.17 1006.76,1873.41 1006.76,1873.41
             1006.76,1873.41 1005.93,1826.86 1005.93,1826.86
             1005.93,1826.86 1371.21,1571.73 1371.21,1571.73
             1371.21,1571.73 1750.98,1826.75 1750.98,1826.75
             1750.98,1826.75 1750.49,1873.04 1750.49,1873.04
             1750.49,1873.04 1709.85,1845.51 1709.85,1845.51
             1709.85,1845.51 1709.28,2020.22 1709.28,2020.22
             1700.19,2023.12 1668.37,2035.40 1668.37,2034.54
             1668.37,2033.68 1669.56,1820.89 1669.56,1820.89
             1669.56,1820.89 1374.40,1619.75 1374.40,1619.75
             1374.40,1619.75 1085.71,1820.89 1085.71,1820.89
             1085.71,1820.89 1089.07,1960.01 1089.07,1960.01
             1089.07,1960.01 1070.82,1950.86 1048.15,1940.25
             1047.65,1940.25 1046.62,1846.17 1046.62,1846.17 Z">
        <title>telhado</title>
  </path>
  <path id="path5"
        fill="#E7DDCF" stroke="#b4ada3" stroke-width="8"
        d="M 557.06,1334.00
           C 581.96,1187.37 692.52,905.50 937.63,720.81
             1091.40,609.38 1314.76,509.24 1598.15,539.27
             1846.54,559.94 2032.75,688.91 2130.21,787.47
             2262.15,914.60 2368.70,1120.52 2389.89,1216.32
             2195.58,1202.77 2097.13,1210.46 2021.20,1235.87
             1964.96,1206.86 1845.50,1137.94 1777.64,1090.25
             1731.80,1063.68 1705.23,1061.30 1649.14,1083.29
             1623.57,962.01 1525.50,829.47 1327.96,843.81
             1181.14,867.37 1080.15,976.95 1067.33,1120.04
             1018.25,1096.92 999.22,1079.46 953.20,1083.45
             850.60,1113.44 698.82,1223.50 557.06,1334.00 Z">
        <title>céu</title>
  </path>
  <path id="path6"
        fill="#556B5A" stroke="#425246" stroke-width="8"
        d="M 595.96,1851.58
           C 663.75,2047.16 810.51,2218.33 926.88,2302.94
             1069.05,2411.74 1303.47,2505.77 1525.46,2494.90
             1808.65,2460.12 1909.16,2397.64 2015.67,2329.63
             2143.38,2248.09 2275.88,2095.44 2335.23,1955.00
             2104.89,1886.55 1612.43,2078.95 1440.90,2188.64
             1481.71,2228.78 1591.44,2342.86 1632.69,2405.16
             1535.83,2320.18 1304.28,2107.66 1149.60,2031.91
             983.36,1942.41 813.82,1860.90 595.96,1851.58 Z">
        <title>chão</title>
  </path>
  <path id="path7"
        fill="#8B947F" stroke="#6a7061" stroke-width="8"
        d="M 2060.52,1921.77
           C 2113.02,1802.67 2091.90,1742.58 2088.95,1556.82
             2096.66,1366.10 2266.37,1239.83 2403.78,1256.57
             2488.58,1530.11 2399.32,1830.36 2350.37,1917.62
             2314.60,1910.08 2117.66,1909.04 2060.52,1921.77 Z">
        <title>montanha3</title>
  </path>
  <path id="path8"
        fill="#E7DDCF" stroke="#b4ada3" stroke-width="8"
        d="M 1088.88,1959.74
           C 1134.24,1983.55 1259.39,2052.79 1319.88,2097.57
             1319.88,2097.57 1321.08,1926.45 1321.08,1926.45
             1347.53,1910.38 1387.68,1902.47 1427.08,1927.79
             1427.08,1927.79 1428.43,2156.15 1428.43,2156.15
             1483.00,2114.47 1667.74,2033.53 1668.04,2034.88
             1667.60,2034.88 1669.57,1820.96 1669.15,1820.96
             1668.73,1820.96 1374.19,1619.86 1374.19,1619.86
             1374.19,1619.86 1085.38,1820.89 1085.83,1820.89
             1086.28,1820.89 1088.88,1959.74 1088.88,1959.74 Z">
        <title>casa</title>
  </path>
  <path id="path9"
        fill="#8B947F" stroke="#6a7061" stroke-width="8"
        d="M 544.24,1394.40
           C 682.74,1277.63 910.73,1121.79 968.37,1120.61
             1044.95,1115.11 1162.53,1256.27 1406.72,1411.06
             1405.91,1412.89 1519.15,1477.20 1609.60,1521.63
             1665.30,1547.29 1783.10,1595.04 1796.67,1605.73
             1800.81,1626.86 1798.78,1757.23 1781.47,1803.31
             1781.47,1803.31 1413.60,1553.88 1413.60,1553.88
             1372.99,1524.04 1363.20,1533.11 1330.98,1554.25
             1330.98,1554.25 969.10,1810.00 969.10,1810.00
             969.10,1810.00 971.17,1902.04 971.17,1902.04
             925.15,1883.83 770.84,1822.86 585.03,1817.44
             522.20,1633.50 536.91,1518.50 544.24,1394.40 Z">
        <title>montanha1</title>
  </path>
  <path id="path10"
        fill="#556B5A" stroke="#425246" stroke-width="8"
        d="M 1352.88,1334.04
           C 1400.74,1376.13 1745.32,1556.38 1804.00,1566.71
             1818.67,1474.19 1853.20,1328.28 1987.92,1260.87
             1933.42,1242.21 1797.34,1140.58 1772.71,1129.30
             1721.20,1098.46 1697.30,1099.58 1658.47,1124.39
             1658.93,1124.79 1407.12,1301.23 1352.88,1334.04 Z">
        <title>montanha2</title>
  </path>
  <path id="path11"
        fill="#B08A4A" stroke="#8b6e3a" stroke-width="8"
        d="M 1100.71,1145.74
           C 1118.79,1049.84 1133.40,1010.50 1196.80,945.37
             1251.00,891.89 1379.19,846.19 1495.75,919.18
             1585.13,970.70 1600.14,1048.88 1612.38,1108.48
             1567.41,1144.68 1348.70,1303.39 1318.82,1308.32
             1318.82,1308.32 1100.71,1145.74 1100.71,1145.74 Z
           M 1038.74,1115.06">
        <title>sol</title>
  </path>
</svg>
